<svg width="2220" height="2279" viewBox="0 0 2220 2279" fill="#212121" xmlns="http://www.w3.org/2000/svg">
<path d="M1355.47 1518.78L1352.25 1513.84C1328.74 1477.68 1316.29 1435.7 1316.29 1392.49V658.419L903.748 761.574V1392.49C903.748 1435.66 891.339 1477.61 867.863 1513.77L864.646 1518.71L861.429 1513.77C837.952 1477.61 825.544 1435.66 825.544 1392.49V903.838L413 1006.99V1392.49C413 1540.08 533.064 1660.17 680.625 1660.17C748.029 1660.17 812.446 1634.92 862.041 1589.07L864.646 1586.66L867.25 1589.07C916.846 1634.92 981.301 1660.17 1048.67 1660.17C1151.42 1660.17 1246.4 1599.99 1290.59 1506.83L1294.04 1499.55L1297.49 1506.83C1341.68 1599.99 1436.62 1660.17 1539.41 1660.17C1686.98 1660.17 1807.04 1540.08 1807.04 1392.49V413L1394.5 516.155V1392.49C1394.5 1435.7 1382.09 1477.64 1358.65 1513.84L1355.43 1518.78H1355.47Z" fill="#212121"/>
</svg>